<svg width="132" height="32" viewBox="0 0 132 32" fill="none" xmlns="http://www.w3.org/2000/svg">
<circle cx="16" cy="16" r="16" fill="#5DAF55"/>
<g clip-path="url(#clip0_20_40)">
<path d="M3.60625 12.0625L4.19375 13.0875C4.7125 13.9937 5.5625 14.6625 6.56875 14.95L10.1875 15.9812C11.2625 16.2875 12 17.2688 12 18.3875V20.8813C12 21.5688 12.3875 22.1938 13 22.5C13.6125 22.8062 14 23.4312 14 24.1187V26.5562C14 27.5312 14.9312 28.2375 15.8687 27.9688C16.875 27.6812 17.6562 26.875 17.9125 25.8563L18.0875 25.1562C18.35 24.1 19.0375 23.1938 19.9813 22.6562L20.4875 22.3687C21.425 21.8375 22 20.8375 22 19.7625V19.2437C22 18.45 21.6812 17.6875 21.1187 17.125L20.875 16.8813C20.3125 16.3188 19.55 16 18.7563 16H16.0625C15.3687 16 14.6812 15.8188 14.075 15.475L11.9187 14.2437C11.65 14.0875 11.4438 13.8375 11.3438 13.5437C11.1438 12.9437 11.4125 12.2937 11.9812 12.0125L12.35 11.825C12.7625 11.6187 13.2437 11.5813 13.6812 11.7312L15.1313 12.2125C15.6438 12.3812 16.2062 12.1875 16.5 11.7437C16.7938 11.3062 16.7625 10.725 16.425 10.3188L15.575 9.3C14.95 8.55 14.9563 7.45625 15.5938 6.71875L16.575 5.575C17.125 4.93125 17.2125 4.0125 16.7938 3.28125L16.6437 3.01875C16.425 3.00625 16.2125 3 15.9937 3C10.1937 3 5.275 6.80625 3.60625 12.0625ZM29 16C29 13.7 28.4 11.5375 27.35 9.65625L25.75 10.3C24.7687 10.6938 24.2625 11.7875 24.5938 12.7875L25.65 15.9563C25.8687 16.6063 26.4 17.1 27.0625 17.2625L28.8813 17.7188C28.9563 17.1562 28.9937 16.5812 28.9937 16H29ZM0 16C0 11.7565 1.68571 7.68687 4.68629 4.68629C7.68687 1.68571 11.7565 0 16 0C20.2435 0 24.3131 1.68571 27.3137 4.68629C30.3143 7.68687 32 11.7565 32 16C32 20.2435 30.3143 24.3131 27.3137 27.3137C24.3131 30.3143 20.2435 32 16 32C11.7565 32 7.68687 30.3143 4.68629 27.3137C1.68571 24.3131 0 20.2435 0 16Z" fill="#436920"/>
</g>
<path d="M56.194 12.83V15.386H60.316V17.762H56.194V20.534H60.856V23H53.116V10.364H60.856V12.83H56.194ZM62.2423 17.978C62.2423 16.934 62.4523 16.022 62.8723 15.242C63.3043 14.462 63.8983 13.862 64.6543 13.442C65.4223 13.022 66.2983 12.812 67.2823 12.812C68.5423 12.812 69.5923 13.142 70.4323 13.802C71.2843 14.462 71.8423 15.392 72.1063 16.592H68.8303C68.5543 15.824 68.0203 15.44 67.2283 15.44C66.6643 15.44 66.2143 15.662 65.8783 16.106C65.5423 16.538 65.3743 17.162 65.3743 17.978C65.3743 18.794 65.5423 19.424 65.8783 19.868C66.2143 20.3 66.6643 20.516 67.2283 20.516C68.0203 20.516 68.5543 20.132 68.8303 19.364H72.1063C71.8423 20.54 71.2843 21.464 70.4323 22.136C69.5803 22.808 68.5303 23.144 67.2823 23.144C66.2983 23.144 65.4223 22.934 64.6543 22.514C63.8983 22.094 63.3043 21.494 62.8723 20.714C62.4523 19.934 62.2423 19.022 62.2423 17.978ZM78.3247 23.144C77.3407 23.144 76.4527 22.934 75.6607 22.514C74.8807 22.094 74.2627 21.494 73.8067 20.714C73.3627 19.934 73.1407 19.022 73.1407 17.978C73.1407 16.946 73.3687 16.04 73.8247 15.26C74.2807 14.468 74.9047 13.862 75.6967 13.442C76.4887 13.022 77.3767 12.812 78.3607 12.812C79.3447 12.812 80.2327 13.022 81.0247 13.442C81.8167 13.862 82.4407 14.468 82.8967 15.26C83.3527 16.04 83.5807 16.946 83.5807 17.978C83.5807 19.01 83.3467 19.922 82.8787 20.714C82.4227 21.494 81.7927 22.094 80.9887 22.514C80.1967 22.934 79.3087 23.144 78.3247 23.144ZM78.3247 20.48C78.9127 20.48 79.4107 20.264 79.8187 19.832C80.2387 19.4 80.4487 18.782 80.4487 17.978C80.4487 17.174 80.2447 16.556 79.8367 16.124C79.4407 15.692 78.9487 15.476 78.3607 15.476C77.7607 15.476 77.2627 15.692 76.8667 16.124C76.4707 16.544 76.2727 17.162 76.2727 17.978C76.2727 18.782 76.4647 19.4 76.8487 19.832C77.2447 20.264 77.7367 20.48 78.3247 20.48ZM93.0797 20.768H88.3637L87.6077 23H84.3857L88.9577 10.364H92.5217L97.0937 23H93.8357L93.0797 20.768ZM92.2877 18.392L90.7217 13.766L89.1737 18.392H92.2877ZM102.859 20.516C103.651 20.516 104.185 20.132 104.461 19.364H107.737C107.509 20.384 107.053 21.218 106.369 21.866C105.685 22.514 104.833 22.916 103.813 23.072V23.738C104.437 23.738 104.983 23.906 105.451 24.242C105.919 24.59 106.153 25.106 106.153 25.79C106.153 26.474 105.907 26.99 105.415 27.338C104.923 27.698 104.335 27.878 103.651 27.878H100.879V26.186H103.237C103.477 26.186 103.657 26.15 103.777 26.078C103.897 26.006 103.957 25.886 103.957 25.718C103.957 25.55 103.897 25.43 103.777 25.358C103.657 25.298 103.477 25.268 103.237 25.268H101.959V23.072C100.723 22.88 99.7331 22.334 98.9891 21.434C98.2451 20.522 97.8731 19.37 97.8731 17.978C97.8731 16.934 98.0831 16.022 98.5031 15.242C98.9351 14.462 99.5291 13.862 100.285 13.442C101.053 13.022 101.929 12.812 102.913 12.812C104.173 12.812 105.223 13.142 106.063 13.802C106.915 14.462 107.473 15.392 107.737 16.592H104.461C104.185 15.824 103.651 15.44 102.859 15.44C102.295 15.44 101.845 15.662 101.509 16.106C101.173 16.538 101.005 17.162 101.005 17.978C101.005 18.794 101.173 19.424 101.509 19.868C101.845 20.3 102.295 20.516 102.859 20.516ZM108.772 17.96C108.772 16.928 108.964 16.022 109.348 15.242C109.744 14.462 110.278 13.862 110.95 13.442C111.622 13.022 112.372 12.812 113.2 12.812C113.908 12.812 114.526 12.956 115.054 13.244C115.594 13.532 116.008 13.91 116.296 14.378V12.956H119.374V23H116.296V21.578C115.996 22.046 115.576 22.424 115.036 22.712C114.508 23 113.89 23.144 113.182 23.144C112.366 23.144 111.622 22.934 110.95 22.514C110.278 22.082 109.744 21.476 109.348 20.696C108.964 19.904 108.772 18.992 108.772 17.96ZM116.296 17.978C116.296 17.21 116.08 16.604 115.648 16.16C115.228 15.716 114.712 15.494 114.1 15.494C113.488 15.494 112.966 15.716 112.534 16.16C112.114 16.592 111.904 17.192 111.904 17.96C111.904 18.728 112.114 19.34 112.534 19.796C112.966 20.24 113.488 20.462 114.1 20.462C114.712 20.462 115.228 20.24 115.648 19.796C116.08 19.352 116.296 18.746 116.296 17.978ZM110.842 12.11C111.13 10.334 111.958 9.446 113.326 9.446C113.59 9.446 113.818 9.488 114.01 9.572C114.214 9.644 114.46 9.758 114.748 9.914C114.964 10.034 115.138 10.124 115.27 10.184C115.402 10.232 115.54 10.256 115.684 10.256C116.128 10.256 116.386 9.986 116.458 9.446H118.042C117.754 11.222 116.926 12.11 115.558 12.11C115.294 12.11 115.06 12.074 114.856 12.002C114.664 11.918 114.424 11.798 114.136 11.642C113.92 11.522 113.746 11.438 113.614 11.39C113.482 11.33 113.344 11.3 113.2 11.3C112.756 11.3 112.492 11.57 112.408 12.11H110.842ZM126.172 23.144C125.188 23.144 124.3 22.934 123.508 22.514C122.728 22.094 122.11 21.494 121.654 20.714C121.21 19.934 120.988 19.022 120.988 17.978C120.988 16.946 121.216 16.04 121.672 15.26C122.128 14.468 122.752 13.862 123.544 13.442C124.336 13.022 125.224 12.812 126.208 12.812C127.192 12.812 128.08 13.022 128.872 13.442C129.664 13.862 130.288 14.468 130.744 15.26C131.2 16.04 131.428 16.946 131.428 17.978C131.428 19.01 131.194 19.922 130.726 20.714C130.27 21.494 129.64 22.094 128.836 22.514C128.044 22.934 127.156 23.144 126.172 23.144ZM126.172 20.48C126.76 20.48 127.258 20.264 127.666 19.832C128.086 19.4 128.296 18.782 128.296 17.978C128.296 17.174 128.092 16.556 127.684 16.124C127.288 15.692 126.796 15.476 126.208 15.476C125.608 15.476 125.11 15.692 124.714 16.124C124.318 16.544 124.12 17.162 124.12 17.978C124.12 18.782 124.312 19.4 124.696 19.832C125.092 20.264 125.584 20.48 126.172 20.48Z" fill="#436920"/>
<defs>
<clipPath id="clip0_20_40">
<rect width="32" height="32" fill="white"/>
</clipPath>
</defs>
</svg>
